PathFileType	4	(X/Y/Z)	C:/Users/dbak576/Desktop/Duncan Bakke Modelling Files/H29s1/Static_H29s1.trc	
DataRate	CameraRate	NumFrames	NumMarkers	Units	OrigDataRate	OrigDataStartFrame	OrigNumFrames	
200.00	200.00	4	66	mm	200.00	459	734	
Frame#	Time	LFHD			RFHD			LBHD			RBHD			C7			T10			CLAV			STRN			RBack			LASI			RASI			LPSI			RACR1			RUA1			RElbow			RElbowM			RFA1			RWRR			RWRU			RCAR			LACR1			LUA1			LElbow			LElbowM			LFA1			LWRR			LWRU			LCAR			RTH1			RTH3			RTH2			RLFC			RMFC			RTB1			RTB3			RTB2			RTB4			RLMAL			RCAL			RMT1			RMT5			RToe			LTH1			LTH3			LTH2			LTH4			LLFC			LMFC			LTB1			LTB3			LTB2			LTB4			LLMAL			LCAL			LMT1			LMT5			LToe			RPSI			RMMAL			LMMAL			RTH4			*61			*62			*63			*64			*65			
		X1	Y1	Z1	X2	Y2	Z2	X3	Y3	Z3	X4	Y4	Z4	X5	Y5	Z5	X6	Y6	Z6	X7	Y7	Z7	X8	Y8	Z8	X9	Y9	Z9	X10	Y10	Z10	X11	Y11	Z11	X12	Y12	Z12	X13	Y13	Z13	X14	Y14	Z14	X15	Y15	Z15	X16	Y16	Z16	X17	Y17	Z17	X18	Y18	Z18	X19	Y19	Z19	X20	Y20	Z20	X21	Y21	Z21	X22	Y22	Z22	X23	Y23	Z23	X24	Y24	Z24	X25	Y25	Z25	X26	Y26	Z26	X27	Y27	Z27	X28	Y28	Z28	X29	Y29	Z29	X30	Y30	Z30	X31	Y31	Z31	X32	Y32	Z32	X33	Y33	Z33	X34	Y34	Z34	X35	Y35	Z35	X36	Y36	Z36	X37	Y37	Z37	X38	Y38	Z38	X39	Y39	Z39	X40	Y40	Z40	X41	Y41	Z41	X42	Y42	Z42	X43	Y43	Z43	X44	Y44	Z44	X45	Y45	Z45	X46	Y46	Z46	X47	Y47	Z47	X48	Y48	Z48	X49	Y49	Z49	X50	Y50	Z50	X51	Y51	Z51	X52	Y52	Z52	X53	Y53	Z53	X54	Y54	Z54	X55	Y55	Z55	X56	Y56	Z56	X57	Y57	Z57	X58	Y58	Z58	X59	Y59	Z59	X60	Y60	Z60	X61	Y61	Z61	X62	Y62	Z62	X63	Y63	Z63	X64	Y64	Z64	X65	Y65	Z65	X66	Y66	Z66	

459	2.290	-39.54586	-383.74347	1691.21973	60.00793	-384.70166	1694.49463	-48.59005	-527.37177	1597.34082				20.69823	-554.40436	1484.92944	16.14687	-555.11066	1164.72681	21.69004	-350.42450	1448.76440	20.46502	-256.82510	1302.11926	135.37610	-587.61865	1355.89771	-165.37399	-317.33261	1017.24542	204.80264	-316.14514	1015.46588	-31.06118	-568.33661	1040.05212	164.15790	-499.31464	1523.30042	331.07031	-462.35162	1470.53345	461.58804	-392.68665	1458.01111	444.51266	-289.82016	1382.80603	587.99750	-305.14743	1466.25305	645.19537	-193.49600	1515.53711				740.22150	-187.27234	1486.90405	-126.68960	-498.18393	1519.56177	-282.40887	-477.56357	1453.92004	-436.05405	-430.19556	1429.74829	-427.73373	-345.36832	1347.07104	-555.19183	-361.67334	1439.48230	-642.12799	-267.60489	1498.89404				-731.86841	-246.35085	1477.75671	238.35065	-411.06369	796.70563	225.79988	-387.25693	626.29584	223.24658	-340.10895	720.04193	221.79675	-397.71945	509.71515	66.05119	-389.25369	501.78452	160.53062	-340.13510	381.10739	157.86392	-375.70471	212.10683	216.24837	-380.76666	301.48163	159.31139	-357.44983	296.34705	191.51595	-468.99280	79.62473	144.04259	-528.06268	49.42441	151.97716	-306.83832	27.35199	250.20671	-365.66074	32.94507	189.93698	-259.54166	29.89912	-201.12247	-375.41098	790.76093	-193.13022	-367.17880	619.29578	-180.23125	-314.65271	709.15210	-196.30801	-372.33612	705.42926	-199.15813	-384.71210	533.93939	-45.65277	-365.40863	504.89233	-150.74019	-323.32220	399.20206	-145.81268	-359.64377	230.19215	-202.26530	-366.53156	317.90982	-146.67758	-338.27545	315.28433	-176.77141	-461.42538	81.25218	-131.95801	-517.44928	46.43822	-137.66481	-302.53574	40.43491	-227.76805	-348.31387	24.30390	-166.07617	-243.38950	26.82655	46.56140	-578.74951	1031.88403	107.36986	-431.01279	77.72288	-92.11373	-444.03412	78.34794	231.48210	-399.89862	711.52063	-660.69452	-252.77994	1431.45129				683.64862	-220.87036	1452.28369	98.31516	-518.12811	1616.16760			 
460	2.295	-39.21911	-383.87030	1691.13721	60.02035	-384.72952	1694.46130	-48.58931	-527.36255	1597.36072				20.66075	-554.41589	1484.94983	16.06322	-555.10712	1164.75891	21.70813	-350.47195	1448.75525	20.71694	-256.94778	1302.02039	135.36516	-587.62140	1355.89050	-165.42827	-317.42603	1017.25696	204.44955	-316.09976	1015.19324	-31.12931	-568.42303	1040.06750	164.15234	-499.39227	1523.32263	331.10074	-462.36951	1470.54895	461.58038	-392.74316	1458.04028	444.48056	-289.87552	1382.77869	587.86841	-305.06918	1466.14954	645.18732	-193.51411	1515.51880				740.23975	-187.32556	1486.87024	-126.64256	-498.15991	1519.53784	-282.44305	-477.59525	1453.95190	-436.02414	-430.16617	1429.78345	-428.25018	-345.12448	1347.24976	-555.16394	-361.58423	1439.54602	-642.08167	-267.59305	1498.91235				-731.82684	-246.31001	1477.85254	238.35654	-411.10083	796.72778	225.90904	-387.23495	626.24799	223.25032	-340.11765	720.03540	221.79765	-397.67551	509.74139	66.04411	-389.24173	501.79248	160.53192	-340.13931	381.11740	157.87950	-375.69855	212.11317	216.25690	-380.78247	301.48883	159.31960	-357.44269	296.36365	191.51291	-468.99780	79.62869	143.97063	-528.05902	49.32368	151.98421	-306.84540	27.35294	250.10651	-365.46207	32.91800	189.94611	-259.54361	29.88057	-201.12415	-375.42145	790.76019	-193.13217	-367.18811	619.30219	-180.23755	-314.66254	709.16925	-196.37653	-372.37671	705.46698	-199.15988	-384.74106	533.90820	-45.66489	-365.41638	504.89178	-150.77753	-323.28674	399.18216	-145.84201	-359.66431	230.24236	-202.27100	-366.54517	317.91290	-146.66879	-338.28748	315.28375	-176.75826	-461.43048	81.26719	-131.91803	-517.34155	46.62061	-137.62988	-302.49408	40.44720	-227.86743	-348.41653	24.34789	-166.05167	-243.35681	26.87109	46.45693	-578.83179	1031.90784	107.36620	-430.99863	77.71993	-92.14137	-444.09100	78.24789	231.33476	-399.90167	711.40747	-660.40466	-252.47951	1431.12317				685.62964	-222.58815	1453.35596	97.99894	-522.62408	1620.30383			 
461	2.300	-38.90322	-383.98621	1691.03772	60.04991	-384.75195	1694.45886	-48.58390	-527.37854	1597.37109				20.62510	-554.43903	1484.98853	15.99070	-555.11633	1164.78711	21.69847	-350.49390	1448.73950	20.86588	-256.99637	1302.12817	135.35504	-587.61658	1355.88635	-165.51224	-317.54068	1017.28961	204.17458	-316.00662	1015.06647	-31.20634	-568.52350	1040.09106	164.15709	-499.46286	1523.31799	331.13617	-462.39078	1470.55908	461.56821	-392.76678	1458.03699	444.46274	-289.90210	1382.74634	587.69519	-304.97928	1465.94434	645.17950	-193.54404	1515.53162				740.26556	-187.35852	1486.84326	-126.60121	-498.14172	1519.55396	-282.47476	-477.63144	1453.96301	-436.02713	-430.13995	1429.84290	-428.85144	-344.80588	1347.33105	-555.13232	-361.49286	1439.59961	-642.05103	-267.57117	1498.95837				-731.77332	-246.24518	1477.93909	238.40324	-411.15649	796.73895	225.98404	-387.20367	626.24823	223.26207	-340.12454	720.04492	221.83089	-397.66797	509.74988	66.04108	-389.21902	501.79538	160.53761	-340.13864	381.12473	157.87907	-375.69492	212.11281	216.26974	-380.79080	301.49051	159.32730	-357.43420	296.38934	191.51213	-468.98947	79.64105	143.80286	-528.05756	49.13550	151.99942	-306.85342	27.35327	250.31952	-365.29752	33.07270	189.95583	-259.55536	29.83309	-201.11932	-375.43130	790.76880	-193.13908	-367.20355	619.31616	-180.24159	-314.67322	709.18390	-196.43770	-372.39822	705.49988	-199.16768	-384.76935	533.87115	-45.67885	-365.42365	504.90271	-150.81619	-323.27240	399.16989	-145.87061	-359.68344	230.28351	-202.27907	-366.56329	317.92752	-146.65712	-338.29904	315.29742	-176.73590	-461.41412	81.29223	-131.84586	-517.18976	46.72190	-137.59988	-302.42834	40.49251	-227.83937	-348.44928	24.34918	-166.03413	-243.33890	26.96751	46.33422	-578.92749	1031.94519	107.36397	-430.97488	77.71307	-92.17664	-444.15369	78.14771	231.22841	-399.75888	711.29907	-659.83673	-252.01498	1430.73987	5.20697	4226.97217	1406.84363	687.77557	-224.69064	1454.60425	97.72681	-526.92780	1624.19409			 
462	2.305	-38.68065	-384.10828	1690.97144	60.07178	-384.77667	1694.44849	-48.57132	-527.41138	1597.38843				20.58845	-554.45740	1485.02930	15.93716	-555.13824	1164.79321	21.65364	-350.49347	1448.71545	20.99148	-257.03516	1302.23962	135.33829	-587.61139	1355.88391	-165.63701	-317.65604	1017.33813	204.01413	-315.89380	1015.04401	-31.28448	-568.62335	1040.10791	164.18289	-499.51700	1523.28540	331.17239	-462.40408	1470.56433	461.54984	-392.76068	1458.00012	444.45233	-289.90201	1382.70569	587.45001	-304.92490	1465.69958	645.17200	-193.58093	1515.52490				740.29639	-187.37920	1486.82458	-126.58214	-498.12985	1519.59900	-282.50244	-477.66370	1453.96582	-436.05429	-430.11929	1429.89783	-429.23413	-344.28183	1347.32520	-555.08386	-361.38840	1439.62939	-642.00574	-267.54169	1499.08643				-731.70911	-246.14699	1478.00525	238.48407	-411.22321	796.74365	226.04980	-387.13736	626.25793	223.27538	-340.14236	720.08282	221.86610	-397.68289	509.75760	66.02944	-389.18475	501.79636	160.54654	-340.14014	381.13721	157.86513	-375.68982	212.10338	216.28487	-380.79037	301.49011	159.33604	-357.43558	296.42563	191.50243	-468.97137	79.64057	143.62183	-528.04626	48.99598	152.01541	-306.85986	27.35029	250.37051	-365.19031	33.12260	189.96436	-259.52847	29.88143	-201.11418	-375.43909	790.78119	-193.15744	-367.22281	619.33453	-180.24660	-314.67953	709.19000	-196.47537	-372.40018	705.54144	-199.17441	-384.79318	533.84570	-45.69205	-365.42914	504.92038	-150.86836	-323.25958	399.20630	-145.89726	-359.69720	230.30597	-202.28323	-366.57751	317.93579	-146.65344	-338.30615	315.32410	-176.72192	-461.38571	81.32171	-131.81679	-517.17212	46.58593	-137.25264	-301.97073	40.71677	-227.74197	-348.42258	24.32104	-166.06960	-243.37335	26.91507	46.21170	-579.02673	1031.99219	107.36474	-430.95578	77.71358	-92.22958	-444.20340	78.09657	231.13164	-399.60226	711.23126	-659.26868	-251.76515	1430.81604	6.62718	4222.91650	1406.75586	690.08716	-226.98602	1455.92773	97.45332	-531.29364	1628.35291	98.04023	-516.97595	1615.63135 
